<svg width="64" height="64" xmlns="http://www.w3.org/2000/svg"><path d="M 11 36.5 q -1.5 3.5 -5.5 6 q 3 5 9 7 l -3 9 q 5.5 -0.5 10.5 -3.5 q 10 4.5 20 0 q 5 3 10.5 3.5 l -3.5 -9.5 q 6.5 -1.5 9.5 -6.5 q -4 -2.5 -5.5 -6 q 9 -22.5 -2 -34 l -19 13.5 l -20 -13 q -10 11 -1 33.5" fill="#24b424" stroke="#24b424"/><path d="M 51 2.5 q 11 12 2 33.5 l -16 -23.5 z" fill="#6cff24" stroke="#6cff24"/><path d="M 30.5 15 q 2 -3.5 6.5 -7 v 6 c 10.5 -7 10 19 22.5 6 q 0.5 17.5 -15 19" fill="#24b424" stroke="#24b424"/><path d="M 12 3 l 11.5 7.5 l -7 3.5 l 3.5 7 q -8 9.5 -9 15.5 q -9 -22.5 1 -33.5" fill="#6cff24" stroke="#6cff24" stroke-linecap="square" stroke-linejoin="round"/><path d="M 24 40 q 8 -5 16 0" fill="none" stroke="#006c24" stroke-width="3" stroke-linecap="round" stroke-linejoin="round"/><path d="M 32 41 v -8" fill="none" stroke="#002424" stroke-width="2" stroke-linecap="round" stroke-linejoin="round"/><path d="M 16 40 c 8 13 24 13 32 0" fill="none" stroke="#002424" stroke-width="2"/><path d="M 15 41.5 q 0.5 -2.5 3 -2" fill="none" stroke="#002424" stroke-width="2" stroke-linecap="round" stroke-linejoin="bevel"/><path d="M 49 42 q -0.5 -3 -3 -2.5" fill="none" stroke="#002424" stroke-width="2" stroke-linecap="round" stroke-linejoin="bevel"/><path d="M 23 35.5 q 0 -4.5 1 -7.5" fill="none" stroke="#002424" stroke-width="3" stroke-linecap="round" stroke-linejoin="round"/><path d="M 41 35.5 q 0 -4.5 -1 -7.5" fill="none" stroke="#002424" stroke-width="3" stroke-linecap="round" stroke-linejoin="round"/><path d="M 47.5 18.5 c 4 5.5 6 6.5 10 2.5" fill="none" stroke="#24b424" stroke-width="2" stroke-linecap="round" stroke-linejoin="round"/><path d="M 47 18.5 c 4.5 7 7.25 6.5 12.5 1.5 q 0.25 14.5 -10 18 l 0 -9 z" fill="#6cff24" stroke="#6cff24" stroke-linecap="round"/></svg>