<svg width="168" height="64" xmlns="http://www.w3.org/2000/svg"><defs><linearGradient id="TitleColor" x1="0%" y1="100%" x2="0%" y2="0%"><stop offset="0%" style="stop-color:#00ff00;stop-opacity:1"/><stop offset="100%" style="stop-color:#ff00ff;stop-opacity:1"/></linearGradient><linearGradient id="TitleGold" x1="0%" y1="0%" x2="100%" y2="0%"><stop offset="0%" style="stop-color:#6c0024;stop-opacity:1"/><stop offset="40%" style="stop-color:#ffd848;stop-opacity:1"/><stop offset="50%" style="stop-color:#ffffd8;stop-opacity:1"/><stop offset="60%" style="stop-color:#ffd848;stop-opacity:1"/><stop offset="100%" style="stop-color:#6c0024;stop-opacity:1"/></linearGradient><linearGradient id="TitleGoldDark" x1="0%" y1="0%" x2="100%" y2="0%"><stop offset="0%" style="stop-color:#6c0024;stop-opacity:1"/><stop offset="50%" style="stop-color:#ff9048;stop-opacity:1"/><stop offset="100%" style="stop-color:#6c0024;stop-opacity:1"/></linearGradient></defs><path d="M 6 8 v -6 l 31 2 l 1 13 z" fill="url(#TitleGold)"/><path d="M 38 10 v -6 l 23 -2 l 0 4 z" fill="url(#TitleGold)"/><path d="M 60 20 c 0 -26 26 -25 26 -6 z" fill="url(#TitleGold)"/><path d="M 86 8 v -6 l 13 -1 l 0 5 z" fill="url(#TitleGold)"/><path d="M 99 19 v -5 l 2 0 l 2 -12 h 14 v 6 L 101 19 z" fill="url(#TitleGold)"/><path d="M 117 8 v -6 l 9 0 l 3 1 L 129 8 z" fill="url(#TitleGold)"/><path d="M 129 8 v -5 l 6 -1 h 9 l 0 6 z" fill="url(#TitleGold)"/><path d="M 143 12 c -4 -6 20 -20 20 12 z" fill="url(#TitleGold)"/><path d="M 35 38 v -4 h 5 v 4 z" fill="url(#TitleGoldDark)"/><path d="M 81 48 v -5 l 2 2 v 5 z" fill="#6c0024"/><path d="M 58 25 l -2 -5 l 5 0 v 5 z" fill="#6c0024"/><path d="M 69 28 v -7 h 17 v 9 z" fill="#6c0024"/><path d="M 83 39 v -7 l 18 -1 v 16 l 1 -11 h 1 v 13 z" fill="#6c0024"/><path d="M 115 48 v -8 h 3 v 8 z" fill="#6c0024"/><path d="M 131 36 v -5 h 7 v 5 z" fill="url(#TitleGoldDark)"/><path d="M 131 49 v -7 l 9 8 v 6 z" fill="url(#TitleGoldDark)"/><path d="M 6 6 l 31 2 l 1 9 l 0 -9 l 23 -2 l -1 14 h -3 l 1 4 h 2 L 60 24 v -4 c 1 -19 23 -23 26 -6 v 8 l -14 2 c 0 -4 -2 -2 -2 0 c 0 3 5 6 5 1 l 10 -2 c 2 7 1 12 -4 14 v 10 l 2 2 v -12 l 5 -1 l 12 1 l 1 10 l 2 -10 h -3 L 88 36 L 86 12 V 6 l 13 -1 v 13 h 2 l 2 -12 h 13 l -18 21 v 8 h 1 l 1 -8 h -2 L 116 6 H 125 l 4 1 l 15 -1 v 4 c 13 -4 19 0 19 14 c 0 22 -29 20 -26 2 L 131 35 l -16 5 l 2 7 l 0 -3 l -2 -4 L 131 35 h 7 v 4 l -7 7 l 9 8 v 4 l -13 -1 v 1 l -10 -2 l -16 2 h -13 l -17 -3 v 1 h -11 q -8 2 -21 2 l -4 -20 h 5 h 17 q 3 0 3 8 v -8 L 40 38 l -1 -12 l -9 -1 l 1 13 h -13 l -4 -18 l -8 -2 z" fill="url(#TitleColor)"/><path d="M 8 8 l 26 2 l 3 14 l -10 -3 l 2 15 h -8 l -5 -18 l -8 -2 z m 32 2 l 19 -2 l -2 10 h -9 l 1 3 l 5 -1 l 2 6 l -7 1 v 4 l 12 -5 v 9 l -18 2 z m 34 12 l 10 -3 c 0 -21 -22 -14 -22 3 c 1 16 21 17 21 8 v -5 l -6 3 c -2 7 -10 0 -10 -4 c 0 -9 7 -6 7 -2 z m 14 -13 l 9 -2 l -1 13 h 7 l 3 -12 h 9 l -8 25 l -6 2 l 2 -10 h -7 v 10 h -5 z m 29 -1 h 7 l 4 16 l 2 -15 l 12 -1 l -14 28 h -4 l -3 -12 v 12 l -11 -3 z m 22 18 c 0 -12 8 -15 13 -15 c 7 0 8 7 8 12 c 0 9 -5 14 -11 14 c -7 0 -10 -5 -10 -11 z" fill="#480090"/><path d="M 37 40 c 20 -1 21 -1 19 5 c 4 3 4 8 0 9 l -15 2 z m 25 -1 c 11 -5 21 -1 15 8 l 8 8 l -13 -3 l -3 -6 v 8 h -7 z m 23 1 l 12 -3 l 2 9 h -8 l 0 1 h 4 v 3 h -4 l 0 2 l 8 -2 l -1 6 h -11 z m 22 -3 h 3 l 7 16 l -7 2 l -2 -6 v 5 l -7 2 z m 9 0 h 6 q 2 1 3 5 l 3 -5 h 8 l -8 8 l 10 11 l -10 -2 q -2 -1 -3 -3 v 5 l -6 -2 q 4 -6 -3 -17 z" fill="#480090"/><path d="M 6 4 z m 141 22 c 1 -6 7 -11 6 -2 c -2 6 -7 7 -6 2 z M 46 43 c 1 -1 4 -2 5 0 c 1 3 -3 3 -5 3 z m 1 7 c 2 -1 4 -2 5 0 c 1 2 -2 2 -5 2 z m 23 -9 c 3 1 5 3 -1 3 z m 38 2 l 2 4 h -2 z m -102 15" fill="url(#TitleColor)"/></svg>